<?xml version="1.0" standalone="no"?><!DOCTYPE svg PUBLIC "-//W3C//DTD SVG 1.1//EN" "http://www.w3.org/Graphics/SVG/1.1/DTD/svg11.dtd"><svg t="1498141949813" class="icon" style="" viewBox="0 0 1123 1024" version="1.1" xmlns="http://www.w3.org/2000/svg" p-id="19320" xmlns:xlink="http://www.w3.org/1999/xlink" width="140.375" height="128"><defs><style type="text/css"></style></defs><path d="M1068.820341 773.878914l-297.853315-261.370752 297.853315-261.370752c62.346282-54.671276 72.088983-145.509703 21.588145-202.879496-50.32561-57.439885-141.619631-59.647763-203.930867-4.976488L53.897174 773.878914c-62.311236 54.63623-72.018892 145.509703-21.658236 202.949588 50.395701 57.369794 141.724768 59.472535 204.000958 4.871351l325.118861-285.271912 325.118861 285.271912c62.27619 54.776413 153.640303 52.498443 204.07105-4.871351C1140.909324 919.388617 1131.131577 828.515144 1068.820341 773.878914z" p-id="19321" fill="#515151"></path><path d="M209.324807 384.135802c42.68565 37.919436 117.192786 23.65584 166.326842-31.78644 49.204148-55.442281 54.531093-131.070879 11.810397-168.955269l-179.784387-159.59807c-42.68565-37.849345-117.192786-23.65584-166.396934 31.821486-49.099011 55.407235-54.461001 131.105924-11.775352 168.920223L209.324807 384.135802z" p-id="19322" fill="#515151"></path></svg>